<svg xmlns="http://www.w3.org/2000/svg" version="1.1" xmlns:xlink="http://www.w3.org/1999/xlink" width="512" height="512" x="0" y="0" viewBox="0 0 512 512" style="enable-background:new 0 0 512 512" xml:space="preserve" class=""><g><path fill="#ecce93" d="M32 16h352c17.672 0 32 14.328 32 32v432c0 17.672-14.328 32-32 32H32c-17.672 0-32-14.328-32-32V48c0-17.672 14.328-32 32-32zm0 0" opacity="1" data-original="#ecce93" class=""></path><path fill="#efefef" d="M32 374.625V48h352v432H137.375zm0 0" opacity="1" data-original="#efefef" class=""></path><path fill="#e76e54" d="M137.375 374.625V480L32 374.625zM128 64V0h160v64c0 17.672-14.328 32-32 32h-96c-17.672 0-32-14.328-32-32zm0 0" opacity="1" data-original="#e76e54"></path><path fill="#48d3ef" d="M512 368c0 79.527-64.473 144-144 144s-144-64.473-144-144 64.473-144 144-144 144 64.473 144 144zm0 0" opacity="1" data-original="#48c8ef" class=""></path><path fill="#ffffff" d="M335.008 429.648 304 398.625c-6.246-6.25-6.246-16.379 0-22.625s16.375-6.246 22.625 0l10.367 10.352 72.465-60.399c6.79-5.664 16.887-4.746 22.543 2.047 5.664 6.79 4.746 16.887-2.047 22.543zm0 0" opacity="1" data-original="#ffffff"></path><g fill="#77959e"><path d="M176 128h128c8.836 0 16 7.164 16 16s-7.164 16-16 16H176c-8.836 0-16-7.164-16-16s7.164-16 16-16zM96 128h32v32H96zM96 192h32v32H96zM96 256h32v32H96zM96 320h32v32H96zM176 192h96c8.836 0 16 7.164 16 16s-7.164 16-16 16h-96c-8.836 0-16-7.164-16-16s7.164-16 16-16zM176 256h32c8.836 0 16 7.164 16 16s-7.164 16-16 16h-32c-8.836 0-16-7.164-16-16s7.164-16 16-16zm0 0" fill="#77959e" opacity="1" data-original="#77959e"></path></g></g></svg>